<svg width="14" height="11" viewBox="0 0 14 11" fill="none" xmlns="http://www.w3.org/2000/svg">
<path fill-rule="evenodd" clip-rule="evenodd" d="M3 0H0V1H1.91649L3.97904 7.99693L4 7.99075V8H11.9488L11.993 8.01198L11.9962 8H12V7.98605L13.6184 2.00991L13.5334 1.98689L12.5859 1.99696L12.5851 2H3.25381L2.95903 1H3V0ZM12.3142 3L11.231 7H4.72771L3.54859 3H12.3142ZM6 10C6 10.5523 5.55228 11 5 11C4.44772 11 4 10.5523 4 10C4 9.44771 4.44772 9 5 9C5.55228 9 6 9.44771 6 10ZM10 11C10.5523 11 11 10.5523 11 10C11 9.44771 10.5523 9 10 9C9.44771 9 9 9.44771 9 10C9 10.5523 9.44771 11 10 11Z" fill="white"/>
</svg>
